<?xml version="1.0" standalone="no"?>
<!DOCTYPE svg PUBLIC "-//W3C//DTD SVG 20010904//EN"
 "http://www.w3.org/TR/2001/REC-SVG-20010904/DTD/svg10.dtd">
<svg version="1.0" xmlns="http://www.w3.org/2000/svg"
 width="125.000000pt" height="125.000000pt" viewBox="0 0 125.000000 125.000000"
 preserveAspectRatio="xMidYMid meet">

<g transform="translate(0.000000,125.000000) scale(0.100000,-0.100000)"
fill="#000000" stroke="none">
<path d="M533 1230 c-129 -34 -244 -111 -316 -212 -81 -113 -123 -246 -97
-307 18 -45 61 -65 119 -56 41 6 53 15 111 78 60 65 65 74 67 119 2 57 36 122
82 156 17 12 40 40 51 62 24 47 45 60 99 60 59 0 96 -36 121 -117 48 -156 -1
-301 -112 -335 -34 -10 -43 -20 -74 -82 -33 -64 -77 -132 -175 -269 l-34 -49
26 -46 c89 -162 384 -174 601 -26 115 78 192 190 228 329 25 99 25 181 0 279
-27 107 -74 190 -150 266 -144 144 -352 201 -547 150z m543 -358 c83 -66 41
-194 -63 -194 -100 0 -147 123 -72 186 37 31 102 35 135 8z m-65 -308 c36 -18
62 -73 53 -112 -4 -15 -18 -39 -32 -54 -65 -71 -183 -24 -182 72 1 89 81 136
161 94z m-291 -111 c72 -42 63 -156 -15 -189 -45 -18 -87 -9 -122 28 -22 23
-28 39 -28 74 0 39 5 50 33 75 38 34 88 39 132 12z"/>
<path d="M981 801 c-13 -24 8 -55 34 -50 28 6 42 34 26 53 -18 22 -48 20 -60
-3z"/>
<path d="M930 495 c-20 -25 -8 -50 25 -50 21 0 31 5 33 18 4 21 -14 47 -33 47
-7 0 -18 -7 -25 -15z"/>
<path d="M634 386 c-11 -28 1 -51 25 -51 32 0 49 28 32 49 -17 20 -50 21 -57
2z"/>
<path d="M612 1028 c-9 -17 -41 -55 -69 -83 -47 -46 -53 -57 -53 -93 0 -37 4
-45 46 -77 53 -40 76 -43 120 -16 65 40 81 153 35 256 -25 56 -54 61 -79 13z"/>
<path d="M410 693 c-101 -115 -283 -396 -366 -566 -45 -93 -54 -127 -31 -127
19 0 184 174 278 295 131 168 265 377 248 388 -2 2 -21 15 -41 30 -20 15 -39
27 -41 27 -3 0 -24 -21 -47 -47z"/>
</g>
</svg>
